<?xml version="1.0" encoding="UTF-8" standalone="no"?>
<!-- Created with Inkscape (http://www.inkscape.org/) -->
<svg
   xmlns:dc="http://purl.org/dc/elements/1.1/"
   xmlns:cc="http://web.resource.org/cc/"
   xmlns:rdf="http://www.w3.org/1999/02/22-rdf-syntax-ns#"
   xmlns:svg="http://www.w3.org/2000/svg"
   xmlns="http://www.w3.org/2000/svg"
   xmlns:sodipodi="http://sodipodi.sourceforge.net/DTD/sodipodi-0.dtd"
   xmlns:inkscape="http://www.inkscape.org/namespaces/inkscape"
   id="svg1340"
   sodipodi:version="0.32"
   inkscape:version="0.45.1"
   width="750"
   height="900"
   sodipodi:docbase="C:\Documents and Settings\Philip\My Documents\My Pictures\Wikipedia"
   sodipodi:docname="Gentleman_coat_of_arms_template.svg"
   version="1.0"
   inkscape:output_extension="org.inkscape.output.svg.inkscape">
  <metadata
     id="metadata1345">
    <rdf:RDF>
      <cc:Work
         rdf:about="">
        <dc:format>image/svg+xml</dc:format>
        <dc:type
           rdf:resource="http://purl.org/dc/dcmitype/StillImage" />
      </cc:Work>
    </rdf:RDF>
  </metadata>
  <defs
     id="defs1343">
    <linearGradient
       id="linearGradient2257">
      <stop
         id="stop2259"
         offset="0"
         style="stop-color:#000000;stop-opacity:1;" />
      <stop
         id="stop2261"
         offset="1"
         style="stop-color:#fffcfc;stop-opacity:0;" />
    </linearGradient>
    <linearGradient
       id="linearGradient2265">
      <stop
         style="stop-color:#000000;stop-opacity:1;"
         offset="0"
         id="stop2267" />
      <stop
         id="stop2283"
         offset="0"
         style="stop-color:#7f7e7e;stop-opacity:0.49803922;" />
      <stop
         style="stop-color:#fffcfc;stop-opacity:0;"
         offset="1"
         id="stop2269" />
    </linearGradient>
    <linearGradient
       id="linearGradient2275">
      <stop
         id="stop2277"
         offset="0"
         style="stop-color:#000000;stop-opacity:1;" />
      <stop
         id="stop2279"
         offset="1"
         style="stop-color:#fffcfc;stop-opacity:0;" />
    </linearGradient>
    <linearGradient
       id="linearGradient2294">
      <stop
         id="stop2296"
         offset="0"
         style="stop-color:#ffffff;stop-opacity:1;" />
      <stop
         id="stop2298"
         offset="1"
         style="stop-color:#959595;stop-opacity:1;" />
    </linearGradient>
  </defs>
  <sodipodi:namedview
     inkscape:window-height="712"
     inkscape:window-width="1024"
     inkscape:pageshadow="2"
     inkscape:pageopacity="0.0"
     borderopacity="1.0"
     bordercolor="#666666"
     pagecolor="#ffffff"
     id="base"
     inkscape:zoom="0.35355339"
     inkscape:cx="353.00205"
     inkscape:cy="219.42151"
     inkscape:window-x="-4"
     inkscape:window-y="-4"
     inkscape:current-layer="layer2"
     height="900px"
     width="750px" />
  <g
     inkscape:groupmode="layer"
     id="layer2"
     inkscape:label="shield"
     style="display:inline">
    <path
       style="opacity:1;fill:none;fill-opacity:1;stroke:#000000;stroke-width:5;stroke-miterlimit:4;stroke-dasharray:none;stroke-opacity:1"
       d="M 210.40625,390.63182 L 210.40625,480.66307 C 210.20426,485.40567 210.09375,490.18358 210.09375,494.97557 C 210.09375,617.65047 276.9557,724.78606 376.21875,781.91307 C 475.4818,724.78606 542.37499,617.65047 542.375,494.97557 C 542.375,487.03154 542.0829,479.15516 541.53125,471.35057 L 541.53125,390.63182 L 210.40625,390.63182 z "
       id="rect2521" />
    <g
       style="opacity:1"
       id="g3274"
       transform="matrix(0.9383731,0.345624,-0.345624,0.9383731,106.82529,-50.233299)">
      <g
         id="g3270">
        <path
           style="fill:#fcfcfc;fill-opacity:1;fill-rule:evenodd;stroke:#000000;stroke-width:3.75;stroke-linecap:butt;stroke-linejoin:miter;stroke-miterlimit:4;stroke-dasharray:none;stroke-opacity:1"
           d="M 302,749.78125 C 285.53833,749.15272 277.17933,748.49635 276.25,748.53125 C 275.60733,748.55537 280.79926,740.15053 287.03125,732.9375 C 293.08194,725.93433 271.13753,720.38589 251.4375,720.71875 C 239.61748,720.91847 228.60513,723.23204 224.90625,728.625 C 218.74788,737.60388 224.75931,749.12558 226.78125,759.8125 C 229.87534,776.16627 225.6535,787.24529 226.75,787.90625 C 240.02833,795.90994 273.56402,798.36934 302,799.40625"
           id="path2218"
           sodipodi:nodetypes="csscsssc" />
        <path
           sodipodi:nodetypes="cc"
           id="path2220"
           d="M 277.43086,748.41082 C 253.99856,747.9831 219.79096,748.45323 222.77033,732.52517"
           style="fill:none;fill-opacity:0.75;fill-rule:evenodd;stroke:#000000;stroke-width:3.75;stroke-linecap:butt;stroke-linejoin:miter;stroke-miterlimit:4;stroke-dasharray:none;stroke-opacity:1" />
      </g>
      <path
         style="fill:none;fill-opacity:0.75;fill-rule:evenodd;stroke:#000000;stroke-width:2.5;stroke-linecap:butt;stroke-linejoin:miter;stroke-miterlimit:4;stroke-dasharray:none;stroke-opacity:1"
         d="M 253.73821,747.91393 C 253.61528,742.44587 247.86313,730.78963 250.69117,733.64431 C 253.69849,736.67995 291.81691,738.322 286.23267,728.30906"
         id="path2222"
         sodipodi:nodetypes="czz" />
    </g>
    <g
       style="opacity:1"
       id="g3328"
       transform="translate(-3.2749549,0.5)">
      <path
         sodipodi:nodetypes="csscsssc"
         id="path3284"
         d="M 625.93407,756.58064 C 641.13654,750.23505 648.73822,746.69693 649.62107,746.40463 C 650.2316,746.20248 642.42827,740.14398 634.06733,735.56575 C 625.94963,731.12072 644.56814,718.24852 663.1407,711.67115 C 674.28424,707.72473 685.41034,706.04113 690.76162,709.80006 C 699.67111,716.05839 698.06846,728.95483 699.91146,739.67406 C 702.73175,756.07727 710.56142,764.98035 709.76529,765.98303 C 700.1243,778.12487 669.56614,792.15662 643.28823,803.07229"
         style="fill:#fcfcfc;fill-opacity:1;fill-rule:evenodd;stroke:#000000;stroke-width:3.75;stroke-linecap:butt;stroke-linejoin:miter;stroke-miterlimit:4;stroke-dasharray:none;stroke-opacity:1;display:inline" />
      <path
         style="fill:none;fill-opacity:0.75;fill-rule:evenodd;stroke:#000000;stroke-width:3.75;stroke-linecap:butt;stroke-linejoin:miter;stroke-miterlimit:4;stroke-dasharray:none;stroke-opacity:1;display:inline"
         d="M 648.47266,746.70476 C 670.27585,738.10963 702.48798,726.58747 694.12659,712.70702"
         id="path3286"
         sodipodi:nodetypes="cc" />
      <path
         sodipodi:nodetypes="czz"
         id="path3288"
         d="M 670.49558,737.95378 C 668.69853,732.78799 670.01123,719.85617 668.36005,723.51959 C 666.6042,727.41523 631.46683,742.28384 633.19689,730.95028"
         style="fill:none;fill-opacity:0.75;fill-rule:evenodd;stroke:#000000;stroke-width:2.5;stroke-linecap:butt;stroke-linejoin:miter;stroke-miterlimit:4;stroke-dasharray:none;stroke-opacity:1" />
    </g>
    <path
       style="opacity:1;fill:none;fill-opacity:1;fill-rule:evenodd;stroke:#000000;stroke-width:3.75;stroke-linecap:butt;stroke-linejoin:miter;stroke-miterlimit:4;stroke-dasharray:none;stroke-opacity:1"
       d="M 622.80548,756.96969 C 478.47046,819.41779 273.47965,819.41779 129.14461,756.96969"
       id="path3304" />
    <path
       style="opacity:1;fill:none;fill-opacity:1;fill-rule:evenodd;stroke:#000000;stroke-width:3.75;stroke-linecap:butt;stroke-linejoin:miter;stroke-miterlimit:4;stroke-dasharray:none;stroke-opacity:1"
       d="M 640.2593,803.4301 C 486.59522,865.75503 266.85489,866.25503 113.19081,803.9301"
       id="path3313"
       sodipodi:nodetypes="cc" />
  </g>
  <g
     inkscape:groupmode="layer"
     id="layer1"
     inkscape:label="mantling"
     style="opacity:1;display:inline">
    <g
       id="g2329"
       transform="matrix(1.016029,0,0,1.016029,55.412988,-191.93367)">
      <g
         id="g2257">
        <path
           style="fill:#da251c;fill-opacity:1;fill-rule:evenodd;stroke:#000000;stroke-width:2.83464575;stroke-linecap:butt;stroke-linejoin:miter;stroke-miterlimit:4;stroke-dasharray:none;stroke-opacity:1"
           d="M 96.625173,398.83653 L 109.02976,396.8779 C 129.30295,378.00494 144.03861,362.96614 146.89638,335.50787 C 139.83223,306.19998 126.98066,302.62375 114.90561,295.02975 C 113.5964,271.31044 83.380137,262.04465 66.593024,246.06429 C 70.264603,262.83537 67.892715,269.89717 76.386116,279.3608 C 63.736409,268.72471 40.089336,273.00323 35.908003,248.02291 C 18.786188,267.2639 12.807387,309.11701 65.940152,312.65731 C 50.927136,316.37222 45.447389,333.80408 32.643639,331.59063 C 58.120634,349.17332 76.111451,334.37324 99.236664,333.54924 C 115.86592,332.3363 135.08138,334.80643 126.00445,364.23426 C 121.68307,376.04819 106.74795,392.74953 96.625173,398.83653 z "
           id="path2835"
           sodipodi:nodetypes="cccccccccccc" />
        <path
           style="fill:#f4c600;fill-opacity:1;fill-rule:evenodd;stroke:#000000;stroke-width:2.83464575;stroke-linecap:butt;stroke-linejoin:miter;stroke-miterlimit:4;stroke-dasharray:none;stroke-opacity:1"
           d="M 98.583791,333.54924 C 96.897355,363.62231 88.492671,385.06589 65.940152,399.4894 C 73.752259,373.15686 56.471524,363.14615 58.105678,343.99521 C 15.117072,388.81241 64.154487,403.36114 25.462039,431.48016 C 19.502784,418.87473 45.491739,406.99846 18.280438,370.76299 C 15.233698,380.45584 12.186959,386.15866 9.140219,402.10089 C 7.9506446,383.01759 -11.012299,375.7832 -21.544802,362.92852 C -13.043467,386.57236 -27.767008,407.94711 -10.445965,423.64569 C -25.374459,416.66232 -34.467752,432.37589 -20.239056,448.45485 C -10.52299,429.44821 -2.8383271,442.94401 5.2229823,450.41347 C 10.29196,482.44441 24.370897,505.37837 47.006841,522.88235 C 14.710731,493.72264 33.242833,452.61445 65.940152,458.90082 C 73.84406,464.91095 80.023722,470.67476 63.981533,473.26402 C 69.237839,481.50144 86.106173,491.76579 95.9723,475.22264 C 109.13526,486.80072 129.64482,481.23673 147.54925,481.75137 C 131.3282,469.42469 130.59431,453.30197 109.02976,447.80198 C 119.15838,447.05545 127.61197,443.51719 132.53318,434.09165 C 118.79273,436.66549 94.269462,424.94472 78.344734,433.43878 C 70.612907,436.03666 67.969811,430.68982 75.080371,426.91005 C 85.141058,421.60029 121.79348,428.48971 142.97914,392.96067 C 108.96696,390.86363 107.32407,398.38264 95.49446,399.45789 C 136.69413,368.99574 140.05472,327.6826 98.583791,333.54924 z "
           id="path2837"
           sodipodi:nodetypes="cccccccccccccccccccccc" />
        <path
           style="fill:#f8c400;fill-opacity:1;fill-rule:evenodd;stroke:#000000;stroke-width:2.83464575;stroke-linecap:butt;stroke-linejoin:miter;stroke-miterlimit:4;stroke-dasharray:none;stroke-opacity:1"
           d="M 36.382446,691.44832 C 43.227515,730.33948 103.63018,746.77728 102.84105,697.75461 C 134.42426,696.55286 142.31583,740.55453 110.60263,747.23474 C 126.29968,768.78172 112.1568,783.30754 107.69204,800.11056 C 104.53035,801.06367 100.98506,801.24958 96.534756,799.62546 C 87.683555,747.80697 40.108014,741.63863 36.382446,691.44832 z "
           id="path2839"
           sodipodi:nodetypes="cccccc" />
        <path
           style="fill:#f4c600;fill-opacity:1;fill-rule:evenodd;stroke:#000000;stroke-width:2.12598419;stroke-linecap:butt;stroke-linejoin:miter;stroke-miterlimit:4;stroke-dasharray:none;stroke-opacity:1"
           d="M 277.00189,496.2989 L 282.6655,514.83434 C 265.2277,524.87908 248.73219,536.18021 239.41614,557.05396 C 232.23904,568.33408 222.51342,569.42011 212.64272,569.9258 C 220.11605,566.07191 220.84941,552.90369 229.11867,544.697 C 223.28344,547.73216 217.4482,546.70763 211.61297,545.72675 C 222.08206,539.13484 229.46192,524.10772 238.38639,513.28972 L 277.00189,496.2989 z "
           id="path1368"
           sodipodi:nodetypes="cccccccc" />
        <path
           id="path2250"
           style="fill:#da251c;fill-opacity:1;fill-rule:evenodd;stroke:#000000;stroke-width:2.83464575;stroke-linecap:butt;stroke-linejoin:miter;stroke-miterlimit:4;stroke-dasharray:none;stroke-opacity:1"
           d="M 172.99747,481.88244 C 151.22817,497.17309 128.89188,503.19704 109.66584,503.29959 C 70.642536,503.50773 47.521878,475.20232 61.784809,458.71314 C 15.156146,458.66818 20.399897,531.86417 82.894619,533.88466 C 72.439627,539.16807 65.728852,547.66081 64.87405,561.17295 C 80.270292,545.62467 108.22512,569.39398 128.71835,544.697 C 108.8988,571.50728 87.437128,578.61217 64.87405,572.50016 C 46.40005,566.44457 45.86252,549.40844 57.665822,536.45903 C 43.759958,534.72994 28.883002,530.08757 22.911867,552.16267 C -4.6711276,529.88532 -26.576351,541.6746 -47.368354,560.1432 C -22.51735,559.8005 -5.049707,588.47111 13.386709,593.60997 C 0.51487367,592.55444 -11.842088,615.56398 -25.228797,612.14542 C -0.65730475,616.71304 17.244775,630.81029 40.674999,603.39257 C 59.549431,604.55986 78.247089,604.31297 95.766454,594.63972 C 80.080555,606.89457 68.890287,616.62515 46.85348,623.9875 C 6.2153486,635.65441 -4.243729,672.54953 -11.842089,685.25744 C 6.3457466,675.32065 23.223787,676.80153 42.734493,664.6625 C 20.662064,705.95035 60.816484,741.00141 95.251581,722.8432 C 80.946062,711.78433 70.294638,700.57586 73.112025,675.98972 C 78.529011,686.29056 86.231626,691.25826 95.766454,691.9508 C 80.732995,671.81149 84.762065,655.11302 99.885442,636.34447 C 92.990436,659.4823 102.30333,670.49437 106.5788,687.31693 C 111.06959,677.87037 118.842,672.52584 118.42088,656.9394 C 123.61483,681.89715 137.8872,695.50687 153.94715,706.88212 C 169.26044,690.42277 167.73653,653.47361 149.82816,646.12706 C 165.57904,646.6956 171.01796,634.98092 167.84873,623.47263 C 158.11719,626.71016 147.24841,636.20245 140.04557,625.53213 C 134.29264,617.39766 139.46751,601.92303 152.78915,584.90658 L 153.10655,571.47309 L 165.90263,571.12111 C 188.75795,545.8471 220.08445,521.33814 237.35664,513.28972 C 220.66011,488.60621 194.5627,490.74271 172.99747,481.88244 z "
           sodipodi:nodetypes="cscccccccccccccccccccccccccccccc" />
        <path
           id="path2243"
           style="fill:#f4c600;fill-opacity:1;fill-rule:evenodd;stroke:#000000;stroke-width:2.83464575;stroke-linecap:butt;stroke-linejoin:miter;stroke-miterlimit:4;stroke-dasharray:none;stroke-opacity:1"
           d="M 173.51234,564.26219 C 201.97915,534.59096 234.5359,509.75329 278.03164,497.84352 C 271.02584,491.48315 263.36737,485.34033 252.28797,480.33782 C 195.649,490.58016 182.8525,440.18015 220.36582,436.05871 C 210.23998,424.1203 200.11413,424.54858 189.98829,430.3951 C 194.47164,380.51484 172.85176,378.23458 154.9769,369.12517 C 170.5854,384.7185 147.51138,415.02395 163.21487,436.05871 C 155.26662,422.00121 143.86877,420.01731 133.35221,414.9489 C 146.77949,430.45809 130.82945,455.70213 162.18512,459.22801 C 165.48189,478.64461 176.98164,494.27523 215.73196,497.32865 C 222.05454,502.13413 222.28117,506.93962 216.24683,511.7451 C 196.03428,515.17158 186.04222,505.82243 176.60158,495.78403 C 175.29473,503.33059 171.81702,510.33443 180.97801,520.49795 C 163.72975,516.89724 153.68972,534.0089 140.04557,531.31029 C 153.05437,541.31817 166.5381,548.239 182.26519,540.57801 C 173.40366,549.32187 172.89677,556.8722 173.51234,564.26219 z "
           sodipodi:nodetypes="cccccccccccccccc" />
      </g>
      <g
         id="g2289">
        <path
           sodipodi:nodetypes="cccccccccccc"
           id="path2267"
           d="M 530.23463,398.83653 L 517.83004,396.8779 C 497.55685,378.00494 482.82119,362.96614 479.96342,335.50787 C 487.02757,306.19998 499.87914,302.62375 511.95419,295.02975 C 513.2634,271.31044 543.47966,262.04465 560.26678,246.06429 C 556.5952,262.83537 558.96709,269.89717 550.47368,279.3608 C 563.12339,268.72471 586.77046,273.00323 590.9518,248.02291 C 608.07361,267.2639 614.05241,309.11701 560.91965,312.65731 C 575.93266,316.37222 581.41241,333.80408 594.21616,331.59063 C 568.73917,349.17332 550.74835,334.37324 527.62314,333.54924 C 510.99388,332.3363 491.77842,334.80643 500.85535,364.23426 C 505.17673,376.04819 520.11185,392.74953 530.23463,398.83653 z "
           style="fill:#da251c;fill-opacity:1;fill-rule:evenodd;stroke:#000000;stroke-width:2.83464575;stroke-linecap:butt;stroke-linejoin:miter;stroke-miterlimit:4;stroke-dasharray:none;stroke-opacity:1" />
        <path
           sodipodi:nodetypes="cccccccccccccccccccccc"
           id="path2269"
           d="M 528.27601,333.54924 C 529.96244,363.62231 538.36713,385.06589 560.91965,399.4894 C 553.10754,373.15686 570.38828,363.14615 568.75412,343.99521 C 611.74273,388.81241 562.70531,403.36114 601.39776,431.48016 C 607.35702,418.87473 581.36806,406.99846 608.57936,370.76299 C 611.6261,380.45584 614.67284,386.15866 617.71958,402.10089 C 618.90916,383.01759 637.8721,375.7832 648.4046,362.92852 C 639.90327,386.57236 654.62681,407.94711 637.30576,423.64569 C 652.23426,416.66232 661.32755,432.37589 647.09886,448.45485 C 637.38279,429.44821 629.69813,442.94401 621.63682,450.41347 C 616.56784,482.44441 602.4889,505.37837 579.85296,522.88235 C 612.14907,493.72264 593.61697,452.61445 560.91965,458.90082 C 553.01574,464.91095 546.83608,470.67476 562.87827,473.26402 C 557.62196,481.50144 540.75363,491.76579 530.8875,475.22264 C 517.72454,486.80072 497.21498,481.23673 479.31055,481.75137 C 495.5316,469.42469 496.26549,453.30197 517.83004,447.80198 C 507.70142,447.05545 499.24783,443.51719 494.32662,434.09165 C 508.06707,436.66549 532.59034,424.94472 548.51507,433.43878 C 556.24689,436.03666 558.88999,430.68982 551.77943,426.91005 C 541.71874,421.60029 505.06632,428.48971 483.88066,392.96067 C 517.89284,390.86363 519.53573,398.38264 531.36534,399.45789 C 490.16567,368.99574 486.80508,327.6826 528.27601,333.54924 z "
           style="fill:#f4c600;fill-opacity:1;fill-rule:evenodd;stroke:#000000;stroke-width:2.83464575;stroke-linecap:butt;stroke-linejoin:miter;stroke-miterlimit:4;stroke-dasharray:none;stroke-opacity:1" />
        <path
           sodipodi:nodetypes="cccccc"
           id="path2271"
           d="M 590.47735,691.44832 C 583.63228,730.33948 523.22962,746.77728 524.01875,697.75461 C 492.43554,696.55286 484.54397,740.55453 516.25717,747.23474 C 500.56012,768.78172 514.703,783.30754 519.16776,800.11056 C 520.31189,804.10075 525.43413,807.4181 530.32504,799.62546 C 543.79027,749.53723 586.79031,741.65307 590.47735,691.44832 z "
           style="fill:#f8c400;fill-opacity:1;fill-rule:evenodd;stroke:#000000;stroke-width:2.83464575;stroke-linecap:butt;stroke-linejoin:miter;stroke-miterlimit:4;stroke-dasharray:none;stroke-opacity:1" />
        <path
           sodipodi:nodetypes="cscccccccccccsccccccccccccccccsccscc"
           d="M 395.4558,457.49921 C 428.73032,486.8146 476.30926,505.35335 519.02093,502.54055 C 557.96044,499.97617 581.16489,474.44328 566.90196,457.9541 C 613.53062,457.90914 608.28687,531.10513 545.79215,533.12562 C 551.1855,540.43369 555.87163,541.33397 563.30656,552.31529 C 550.9473,548.91494 520.46165,568.12878 506.54855,554.06124 C 519.28181,568.72358 538.21266,575.82847 560.77574,569.71646 C 579.24974,563.66087 582.82425,548.6494 571.02095,535.69999 C 584.92681,533.9709 606.89006,533.37784 604.76257,555.9591 C 632.34557,533.68175 639.57204,542.43405 676.05512,559.38416 C 656.77192,565.11543 633.23032,592.26754 608.71993,586.77696 C 621.59177,585.72143 629.39326,600.63235 641.26147,603.79392 C 615.67765,620.50947 589.67695,616.89099 556.62961,598.58422 C 569.45453,618.21764 589.03734,617.31247 605.20501,637.02969 C 619.70684,654.71534 624.89242,678.3701 629.89942,685.00456 C 611.71158,675.06777 604.45065,681.10413 584.93995,668.9651 C 608.10078,704.64581 552.45714,745.72891 529.70055,719.04977 C 545.40656,708.92456 558.39213,699.81682 555.57474,675.23068 C 550.15776,685.53152 536.88734,690.49922 527.35252,691.19176 C 542.38597,671.05245 543.9247,654.35398 528.80133,635.58543 C 535.69633,658.72326 518.28482,681.88326 511.47853,690.10104 C 510.02472,679.13599 503.7708,684.92706 504.19192,669.34062 C 498.99797,694.29837 482.70095,693.22934 469.67798,709.66623 C 470.56193,694.72537 457.91326,662.33168 475.82163,654.98513 C 460.07075,655.55367 453.11334,637.25886 460.83804,622.71359 C 470.56958,628.48194 481.43836,635.44341 488.6412,624.77309 C 491.48367,619.66154 487.89252,609.36475 478.16623,596.4653 L 478.37127,571.63024 L 458.21884,571.70891 C 432.89645,542.45846 399.75672,510.36093 392.84862,491.2718 C 372.86749,489.91065 367.11946,482.74637 362.83487,464.42939 C 358.55028,446.1124 360.99766,470.38171 359.51476,458.12835 C 353.8516,432.95014 328.81783,426.24762 365.99804,440.21339 C 375.29924,439.65921 375.60191,442.98307 377.46878,443.3862 C 379.33565,443.78932 381.71301,437.05688 384.62654,450.10868 C 387.16369,461.86275 386.78957,449.38026 395.4558,457.49921 z "
           style="fill:#da251c;fill-opacity:1;fill-rule:evenodd;stroke:#000000;stroke-width:2.83464575;stroke-linecap:butt;stroke-linejoin:miter;stroke-miterlimit:4;stroke-dasharray:none;stroke-opacity:1"
           id="path2277" />
        <path
           style="fill:#f7c600;fill-opacity:1;fill-rule:evenodd;stroke:#000000;stroke-width:2.83464575;stroke-linecap:butt;stroke-linejoin:miter;stroke-miterlimit:4;stroke-dasharray:none;stroke-opacity:1"
           d="M 390.31013,488.10849 C 394.73056,497.35306 405.69607,514.15325 414.76117,516.11394 C 434.14408,523.68862 443.72132,509.36163 444.86556,496.00467 C 453.63917,503.55123 455.87242,513.87363 453.76336,526.94089 C 471.01162,523.34018 485.61467,532.57026 495.52544,533.19021 C 475.87953,544.44255 473.18111,548.87446 456.20956,549.09505 C 459.26362,557.83891 458.11123,562.07068 457.49566,569.46067 C 440.22898,555.13777 391.49426,529.88528 390.31013,488.10849 z "
           id="path2275"
           sodipodi:nodetypes="cccccccc" />
        <path
           style="fill:#f7c600;fill-opacity:1;fill-rule:evenodd;stroke:#000000;stroke-width:2.83464575;stroke-linecap:butt;stroke-linejoin:miter;stroke-miterlimit:4;stroke-dasharray:none;stroke-opacity:1"
           d="M 365.17844,472.18546 C 416.69269,515.48801 461.69006,429.2755 395.99842,433.89829 C 405.70944,410.34493 421.02496,412.65314 431.1508,418.49966 C 423.26419,384.24678 459.18721,380.9494 473.22295,374.26381 C 453.05143,394.83498 479.02919,419.33295 462.49606,441.61217 C 470.02949,420.50274 477.68514,422.23456 485.71278,412.18831 C 484.95215,417.74513 495.95594,460.41137 463.52581,464.78147 C 450.4924,490.57189 396.4939,520.44207 365.17844,472.18546 z "
           id="path2285"
           sodipodi:nodetypes="cccccccc" />
      </g>
    </g>
    <path
       style="fill:#808080;fill-opacity:1;fill-rule:evenodd;stroke:#000000;stroke-width:3.24009228;stroke-linecap:butt;stroke-linejoin:miter;stroke-miterlimit:4;stroke-dasharray:none;stroke-opacity:1"
       d="M 432.9017,295.5418 C 436.8609,323.91109 454.2146,333.4946 464.87486,348.2483 C 436.27897,346.78705 421.9791,345.02328 402.03982,374.34754 C 388.77903,391.72172 368.64728,415.14357 335.58517,414.41719 C 313.15611,391.55997 325.76639,345.77856 344.57068,339.35805 C 343.61765,330.44198 335.70024,319.65542 326.79896,309.85275 C 317.89767,300.05008 296.23595,280.52534 291.34739,275.54481 L 421.28452,275.93568 C 421.28452,275.93568 423.93411,281.61337 426.96221,286.91255 C 429.99031,292.21172 429.99031,292.21172 429.99031,292.21172 L 432.9017,295.5418 z "
       id="path2576"
       sodipodi:nodetypes="csccccc" />
    <path
       style="fill:none;fill-opacity:0.75;fill-rule:evenodd;stroke:#000000;stroke-width:3.24009228;stroke-linecap:butt;stroke-linejoin:miter;stroke-miterlimit:4;stroke-dasharray:none;stroke-opacity:1"
       d="M 344.66633,337.79783 C 347.82335,355.83052 345.11053,382.51915 343.10791,400.00541"
       id="path2578"
       sodipodi:nodetypes="cc" />
    <path
       style="fill:#641441;fill-opacity:1;fill-rule:evenodd;stroke:#000000;stroke-width:3.60010266;stroke-linecap:butt;stroke-linejoin:miter;stroke-miterlimit:4;stroke-dasharray:none;stroke-opacity:1"
       d="M 464.87187,348.23843 C 436.27598,346.77718 421.98682,345.02546 402.04755,374.34973 C 424.02293,377.74164 447.36017,401.42923 467.28693,384.21524 C 480.34736,370.37424 472.24404,359.35508 464.87187,348.23843 z "
       id="path2286"
       sodipodi:nodetypes="cccc" />
    <path
       style="fill:none;fill-opacity:0.75;fill-rule:evenodd;stroke:#000000;stroke-width:1.016029px;stroke-linecap:butt;stroke-linejoin:miter;stroke-opacity:1"
       d="M 336.85512,295.9275 C 336.88367,295.9275 336.91223,295.9275 336.85512,295.9275 z "
       id="path2521" />
    <path
       style="fill:#fbfcfe;fill-opacity:1;fill-rule:evenodd;stroke:none;stroke-width:1px;stroke-linecap:round;stroke-linejoin:miter;stroke-opacity:1"
       d="M 321.95881,232.69882 C 320.46705,236.2174 313.40284,257.5029 313.85949,269.40834 C 303.31869,262.13774 308.06364,240.52118 321.95881,232.69882 z "
       id="path2292"
       sodipodi:nodetypes="ccc" />
    <path
       style="opacity:1;fill:#000000;fill-opacity:1;fill-rule:evenodd;stroke:none;stroke-width:1.37523925;stroke-linecap:butt;stroke-linejoin:miter;stroke-miterlimit:4;stroke-dasharray:none;stroke-opacity:1;display:inline"
       d="M 449.62955,331.63184 C 427.83553,330.59629 407.89321,333.9315 389.82285,364.79199 C 381.24456,381.8279 360.56772,394.84404 342.66922,398.79461 C 333.34781,386.77136 336.3325,361.66708 344.75519,355.53029 L 344.31916,349.2078 C 331.69054,360.15716 328.11317,387.93216 341.26692,403.49409 C 370.15841,395.81997 386.99373,381.94553 395.5532,363.81495 C 414.3811,336.95502 425.71509,335.98018 453.32776,335.03668 L 449.62955,331.63184 z "
       id="path2580"
       sodipodi:nodetypes="ccccccccc" />
    <path
       style="fill:#808080;fill-opacity:1;fill-rule:evenodd;stroke:#000000;stroke-width:3;stroke-linecap:butt;stroke-linejoin:miter;stroke-miterlimit:4;stroke-dasharray:none;stroke-opacity:1"
       d="M 323.31978,250.23473 L 308.59121,262.82211 L 377.13159,263.04383 L 399.6679,264.29024 L 419.93313,275.37796 C 414.58015,248.61308 410.038,239.52878 410.038,239.52878 L 331.88454,239.52878 L 323.31978,250.23473 z "
       id="path7710"
       sodipodi:nodetypes="cccccccc" />
    <g
       id="g2529"
       transform="matrix(1.016029,0,0,1.016029,-695.9225,-137.98852)">
      <path
         sodipodi:nodetypes="cccccc"
         id="path2484"
         d="M 1097.3507,364.20963 C 1112.5039,364.57585 1116.102,369.92493 1117.8562,379.33661 C 1117.8095,385.25002 1115.4778,387.57267 1112.3096,388.58088 C 1108.5364,388.15215 1108.8763,385.96338 1108.6119,379.67277 L 1108.9481,387.57242 C 1097.4109,383.36871 1096.534,373.70787 1097.3507,364.20963 z "
         style="fill:#d82624;fill-opacity:1;fill-rule:evenodd;stroke:#650705;stroke-width:1.0629921;stroke-linecap:butt;stroke-linejoin:round;stroke-miterlimit:4;stroke-dasharray:none;stroke-opacity:1" />
      <path
         sodipodi:nodetypes="ccccc"
         id="path2486"
         d="M 1098.6954,364.37771 C 1106.4801,365.22136 1104.9319,371.38979 1104.41,378.6643 C 1104.3593,374.07018 1104.9198,369.47606 1104.0738,364.88194 C 1112.2231,366.32058 1110.6445,372.10485 1110.7969,378.66431 C 1111.0423,374.97445 1110.8534,373.17516 1110.7969,367.06695"
         style="fill:none;fill-opacity:0.75;fill-rule:evenodd;stroke:#650705;stroke-width:1.0629921;stroke-linecap:butt;stroke-linejoin:round;stroke-miterlimit:4;stroke-dasharray:none;stroke-opacity:1" />
      <path
         sodipodi:nodetypes="cccccccccccc"
         id="path2490"
         d="M 1017.9926,359.43215 C 1016.1128,365.65102 1018.6241,371.60505 1022.5562,377.82392 C 1026.6825,379.52515 1032.188,380.498 1034.9939,375.30275 C 1036.1938,379.26992 1038.8923,377.74176 1041.3809,376.98353 C 1045.8363,371.10277 1042.6012,363.10697 1039.532,358.32691 C 1036.3542,357.44187 1032.4714,356.62851 1029.7652,358.29941 C 1032.2684,360.80001 1033.9744,363.64233 1035.4982,366.56271 C 1034.278,363.5145 1032.0988,360.78598 1029.6154,358.15883 C 1026.0949,356.69018 1022.6905,357.85035 1022.0153,359.51059 C 1023.6954,362.90061 1026.0139,364.48764 1028.7751,367.06695 C 1026.2943,364.66564 1023.4196,362.43484 1021.999,359.50345 C 1021.1378,358.58889 1019.3799,357.96335 1017.9926,359.43215 z "
         style="fill:#cb2322;fill-opacity:1;fill-rule:evenodd;stroke:#650705;stroke-width:1.0629921;stroke-linecap:butt;stroke-linejoin:miter;stroke-miterlimit:4;stroke-dasharray:none;stroke-opacity:1" />
      <path
         sodipodi:nodetypes="cccccccccccccc"
         id="path2480"
         d="M 1017.8015,359.80746 C 1007.0849,358.81109 996.84104,368.24344 1005.1902,382.5492 C 1007.4849,381.70654 1009.24,380.21384 1011.1334,378.36787 C 1014.2573,379.64815 1016.0606,379.68029 1021.5229,379.03457 C 1023.5303,378.13968 1023.346,374.75026 1020.6959,374.27948 L 1011.1857,375.31319 L 1020.7652,374.27698 C 1022.1014,372.33308 1021.7384,369.59198 1019.3168,369.07749 C 1015.6683,369.29645 1013.0223,369.68298 1010.3587,371.17833 C 1013.322,369.40304 1016.2854,369.27557 1019.2487,369.1109 C 1020.3327,368.19529 1020.1501,365.08772 1018.6606,364.55754 C 1013.1613,364.26004 1009.6896,365.82709 1007.0508,368.49067 C 1009.9842,365.4675 1014.0416,364.27874 1018.6284,364.56255 C 1019.755,363.19974 1019.5072,360.26146 1017.8015,359.80746 z "
         style="fill:#ffcf01;fill-opacity:1;fill-rule:evenodd;stroke:#650705;stroke-width:1.0629921;stroke-linecap:butt;stroke-linejoin:miter;stroke-miterlimit:4;stroke-dasharray:none;stroke-opacity:1" />
      <path
         sodipodi:nodetypes="cccccccccccc"
         id="path2492"
         d="M 1057.4437,357.61031 C 1065.3573,357.18117 1061.9773,366.44752 1066.9524,370.55489 C 1064.3476,367.95054 1063.5092,362.31813 1062.3179,357.29069 C 1070.4401,355.07466 1070.5319,363.94735 1073.185,368.79699 L 1069.9888,358.00984 C 1075.2963,355.99773 1076.3594,363.00312 1078.7783,367.91803 L 1080.2965,376.38795 L 1071.4271,376.38795 C 1069.0439,375.28688 1071.3198,371.60883 1069.9089,368.47737 C 1071.5707,371.36157 1069.2083,375.09997 1071.1874,376.54776 L 1062.8773,375.82861 C 1057.3655,374.44264 1057.206,362.82344 1057.1241,357.05098"
         style="fill:#da251d;fill-opacity:1;fill-rule:evenodd;stroke:#650705;stroke-width:1.0629921;stroke-linecap:butt;stroke-linejoin:miter;stroke-miterlimit:4;stroke-dasharray:none;stroke-opacity:1" />
      <path
         sodipodi:nodetypes="ccccccccccccccc"
         id="path2488"
         d="M 1100.3761,382.36201 C 1096.19,384.04919 1091.1407,383.7931 1090.2915,381.52162 C 1084.4606,382.02953 1081.6495,379.04942 1079.7026,375.13467 L 1078.8622,365.21809 C 1084.2933,364.86777 1087.7478,367.15294 1091.9722,368.41157 C 1087.7898,366.6743 1084.3037,364.51914 1078.0218,364.04155 L 1077.3495,359.33538 C 1081.3687,358.8527 1090.0424,360.20582 1096.8465,365.21809 L 1097.5188,373.79005 C 1093.4087,372.69988 1088.8777,372.24107 1085.5853,369.92427 C 1089.3489,373.56301 1093.8606,372.71266 1098.023,373.95813 L 1099.3677,378.49623 C 1094.3709,377.0149 1088.7775,377.32345 1084.5768,373.4539 C 1087.919,376.38663 1093.5072,377.07335 1098.5273,378.32815 L 1100.3761,382.36201 z "
         style="fill:#fcc101;fill-opacity:1;fill-rule:evenodd;stroke:#650705;stroke-width:1.0629921;stroke-linecap:butt;stroke-linejoin:miter;stroke-miterlimit:4;stroke-dasharray:none;stroke-opacity:1" />
      <path
         sodipodi:nodetypes="cccccccccccccccc"
         id="path2482"
         d="M 1040.2537,358.14381 C 1044.0832,356.76855 1048.4829,356.39125 1054.0996,358.14381 C 1058.5309,358.46074 1060.436,364.51125 1057.2456,364.94702 L 1044.3642,366.07609 C 1042.9936,366.20666 1044.1138,366.87428 1044.926,366.59654 L 1056.2389,365.39359 C 1060.7478,365.15684 1062.6161,371.72568 1058.9724,374.6638 C 1053.7638,376.69 1048.9049,377.14237 1044.5917,375.13919 C 1043.3659,375.12218 1042.972,371.78648 1044.7105,371.49566 C 1049.5437,371.00046 1054.3122,370.95164 1057.5768,370.24775 C 1058.1673,368.62816 1057.9172,369.67543 1056.1489,369.31385 C 1054.4058,368.90684 1049.3943,371.79129 1043.9669,371.30544 C 1040.6349,369.57403 1038.1511,364.86147 1041.1451,362.42236 L 1052.614,361.531 L 1040.1349,361.11503 C 1038.9887,361.07541 1038.6434,358.18343 1040.2537,358.14381 z "
         style="fill:#f5c00b;fill-opacity:1;fill-rule:evenodd;stroke:#650705;stroke-width:1.0629921;stroke-linecap:butt;stroke-linejoin:miter;stroke-miterlimit:4;stroke-dasharray:none;stroke-opacity:1" />
      <path
         sodipodi:nodetypes="cccccccccccccccc"
         id="path2520"
         d="M 1005.1723,382.44853 C 1007.9761,381.04031 1009.707,379.63208 1010.9057,378.22386 C 1015.8291,380.77519 1019.2992,378.33566 1022.6745,377.01681 C 1026.364,380.49343 1030.5537,379.96882 1035.0468,377.0168 C 1038.5809,376.72405 1042.5677,376.73316 1043.7979,374.90446 C 1048.0154,376.82767 1053.4615,376.70297 1060.0931,374.6027 C 1066.6313,376.50705 1073.1695,379.5081 1079.7077,377.62033 C 1086.193,381.6262 1090.5678,383.41977 1099.3222,382.44854 C 1102.2365,385.30691 1105.4313,387.99695 1112.2981,388.48379 C 1120.0048,383.92017 1118.5636,374.81926 1114.1086,369.77449 C 1108.8743,363.03136 1101.8683,365.38005 1096.3046,363.73924 C 1090.8552,361.04104 1085.5664,358.18221 1076.9918,358.60927 C 1069.2981,356.77676 1061.9642,355.8436 1055.8684,358.00574 C 1050.1349,356.89195 1044.4014,355.0875 1038.6679,358.60927 C 1031.2149,355.73559 1024.5101,357.35116 1017.8463,359.21279 C 1005.035,357.86627 997.28662,371.96301 1005.1723,382.44853 z "
         style="fill:none;fill-opacity:0.75;fill-rule:evenodd;stroke:#000000;stroke-width:2.83464575;stroke-linecap:butt;stroke-linejoin:miter;stroke-miterlimit:4;stroke-dasharray:none;stroke-opacity:1" />
    </g>
    <path
       style="fill:#641441;fill-opacity:1;fill-rule:evenodd;stroke:#000000;stroke-width:1px;stroke-linecap:butt;stroke-linejoin:miter;stroke-opacity:1"
       d="M 328.94041,263.88482 L 288.79308,274.32312 L 391.03493,275.39372 L 385.14666,262.81423 L 328.94041,263.88482 z "
       id="path8740"
       sodipodi:nodetypes="ccccc" />
    <path
       style="fill:#808080;fill-opacity:1;fill-rule:evenodd;stroke:#000000;stroke-width:2;stroke-linecap:butt;stroke-linejoin:miter;stroke-miterlimit:4;stroke-dasharray:none;stroke-opacity:1"
       d="M 374.13049,275.33545 C 391.54207,260.95197 372.85393,255.38514 372.85393,255.38514 L 414.09278,255.11749 L 414.09278,255.11749 L 414.84981,256.63154 L 420.14898,274.80015 L 374.13049,275.33545 z "
       id="path8736"
       sodipodi:nodetypes="csccccc" />
    <path
       sodipodi:type="arc"
       style="opacity:1;fill:#b3b3b3;fill-opacity:1;fill-rule:nonzero;stroke:#000000;stroke-width:2;stroke-linecap:round;stroke-linejoin:miter;stroke-miterlimit:4;stroke-dasharray:none;stroke-opacity:1"
       id="path8742"
       sodipodi:cx="396.12027"
       sodipodi:cy="266.82895"
       sodipodi:rx="5.0853276"
       sodipodi:ry="5.0853276"
       d="M 401.2056 266.82895 A 5.0853276 5.0853276 0 1 1  391.03494,266.82895 A 5.0853276 5.0853276 0 1 1  401.2056 266.82895 z"
       transform="matrix(0.5161909,0,0,0.5161909,192.1819,127.48838)" />
    <g
       id="g3282"
       transform="matrix(-0.9368595,0.349706,0.349706,0.9368595,609.46289,-30.018488)" />
  </g>
</svg>
